# xmcd
#
# Track frame offsets: 
#        150
#        14142
#        33449
#        53091
#        64895
#        79861
#        93673
#        105382
#        124866
#        136538
#        149961
#        163503
#        177642
#        191420
#        204136
#
# Disc length: 2892 seconds
#
# Revision: 1
# Processed by: cddbd v1.5.2PL0 Copyright (c) Steve Scherf et al.
# Submitted via: ExactAudioCopy v0.99pb5
#
DISCID=d50b4a0f
DTITLE=Various Artist - The Blues CD1 - USA Pre War Bluesplayers
DYEAR=2009
DGENRE=Blues
TTITLE0=Blind Willie McTell - Murderer's Home Blues
TTITLE1=Meade "Lux" Lewis - Honky Tonk Train Blues
TTITLE2=Son House - Death Letter
TTITLE3=Robert Johnson -  Hellhound On My Trail
TTITLE4=Bessie Smith - Backwater Blues
TTITLE5=Mississippi John Hurt - Avalon Blues
TTITLE6=Brownie McGhee - Dealing With The Devil
TTITLE7=Honeyboy Edwards - Further on up the road
TTITLE8=Big Bill Broonzy -  Key To The Highway
TTITLE9=Memphis Minnie - Let Me Ride
TTITLE10=Charley Patton - Poor Me
TTITLE11=Barbecue Bob (Robert Hicks)  She's Coming Back Some Rainy Day
TTITLE12=Leadbelly - The Boll Weevil
TTITLE13=Blind Lemon Jefferson - Jack O'Diamond Blues
TTITLE14=Skip James - I'm So Glad
EXTD=
EXTT0=
EXTT1=
EXTT2=
EXTT3=
EXTT4=
EXTT5=
EXTT6=
EXTT7=
EXTT8=
EXTT9=
EXTT10=
EXTT11=
EXTT12=
EXTT13=
EXTT14=
PLAYORDER=
